<?xml version="1.0" encoding="utf-8"?>
<!-- Generator: Adobe Illustrator 21.0.0, SVG Export Plug-In . SVG Version: 6.00 Build 0)  -->
<svg version="1.1" id="Layer_1" xmlns="http://www.w3.org/2000/svg" xmlns:xlink="http://www.w3.org/1999/xlink" x="0px" y="0px"
	 viewBox="0 0 1207.2 300.8" style="enable-background:new 0 0 1207.2 300.8;" xml:space="preserve">
<g>
	<path d="M783,79.1c-19.9,0-39.8,11.9-50.6,23V0h-4.9c-11.4,10.4-37.6,24.4-56,28.5v4.9c0,0,16.4,6.2,16.4,30.4c0,0,0,81.1,0,103.5
		c0,51.2,33.7,73.6,72.8,73.6c56.3,0,82.5-40.8,82.5-86.9C843.3,109,823.9,79.1,783,79.1z M763.5,230.2c-19.5,0-31.1-18.6-31.1-53.1
		v-59.9c4.1-5.8,14.6-13.9,27-13.9c22.7,0,35.9,23.2,36.2,66C795.5,208.6,784.1,230.2,763.5,230.2z"/>
	<path d="M37,107.1c0-10.8,10.5-17.4,24-17.4c20.8,0,36.3,15.2,42.6,37.7h4.9L122,90.1C114.8,86.3,93,78,67.8,78
		c-35,0-65,18.6-65,50.1c0,53.5,89.2,49,89.2,83.1c0,11.3-10.9,17.9-22.8,17.9c-25,0-44.3-23.3-51.4-43.4h-4.9L0,227.5
		C10.5,234,36.8,241,60.7,241c37.9,0,68.5-19.2,68.5-52.5C129.2,135.3,37,140.1,37,107.1z"/>
	<path d="M297.1,189.1v-69c0-25.8-19.6-42.2-46.3-42.2c-23,0-41.2,13-49.1,24.6V0h-4.9c-11.4,10.4-37.6,24.4-56,28.5v4.9
		c0,0,16.2,6.2,16.2,30.4c0,17.1,0,125.2,0,125.2c0,31.7-6.6,36-14.2,41.4v4.9h73.1v-4.9c-7.6-5.4-14.2-9.6-14.2-41.4l0-72.2
		c4.7-8.4,19.4-16.2,30.6-16.2c14.3,0,20.2,9.4,20.2,22.4l0,65.9c0,31.7-6.6,36-14.2,41.4v4.9h73.1v-4.9
		C303.6,225.1,297.1,220.8,297.1,189.1z"/>
	<path d="M608.4,78.6c-20.4,0-43,13.8-54.4,23.9V78.7h-4.9c-11.4,10.4-35.8,24.4-54.1,28.5v4.9c0,0,16.4,6.2,16.4,30.4l-0.1,112
		c0,31.7-6.6,36-14.2,41.4v4.9h73.1v-4.9c-7.6-5.4-14.2-9.6-14.2-41.4c0-1.2,0-5.8,0-20.9c6.1,3.3,18,7.4,33.1,7.4
		c52.4,0,77-42.3,77-88.4C666,107.5,643.6,78.6,608.4,78.6z M586.1,230.2c-15.8,0-30.3-14.5-30.3-49.1v-64.3
		c2-4.7,14.1-13.6,26.1-13.6c23.4,0,36.5,23.2,36.5,66C618.4,210.1,603.1,230.2,586.1,230.2z"/>
	<path d="M1149.6,78.6c-20.4,0-43,13.8-54.4,23.9V78.7h-4.9c-11.4,10.4-35.8,24.4-54.1,28.5v4.9c0,0,16.4,6.2,16.4,30.4l-0.1,112
		c0,31.7-6.6,36-14.2,41.4v4.9h73.1v-4.9c-7.6-5.4-14.2-9.6-14.2-41.4c0-1.2,0-5.8,0-20.9c6.1,3.3,18,7.4,33.1,7.4
		c52.4,0,77-42.3,77-88.4C1207.2,107.5,1184.8,78.6,1149.6,78.6z M1127.4,230.2c-15.8,0-30.3-14.5-30.3-49.1v-64.3
		c2-4.7,14.1-13.6,26.1-13.6c23.4,0,36.5,23.2,36.5,66C1159.6,210.1,1144.3,230.2,1127.4,230.2z"/>
	<path d="M948.3,78c-53.9,0-86.9,37.3-86.9,80.5c0,43.2,30.6,82.6,85.2,82.6c40.2,0,78.2-28.4,78.2-81.6
		C1024.8,111.5,989.1,78,948.3,78z M960.4,225.6c-34.1,0-56.1-56.5-56.1-96.1c0-21.1,6.8-37.3,23.4-37.3c28,0,55.1,54.6,55.1,102.3
		C982.8,214.3,974.5,225.6,960.4,225.6z"/>
	<path d="M407.6,78c-53.9,0-86.9,37.3-86.9,80.5c0,43.2,30.6,82.6,85.2,82.6c40.2,0,78.2-28.4,78.2-81.6
		C484.1,111.5,448.4,78,407.6,78z M419.7,225.6c-34.1,0-56.1-56.5-56.1-96.1c0-21.1,6.8-37.3,23.4-37.3c28,0,55.1,54.6,55.1,102.3
		C442.1,214.3,433.8,225.6,419.7,225.6z"/>
</g>
</svg>
